<mxfile host="app.diagrams.net" modified="2023-07-21T08:10:01.977Z" agent="Mozilla/5.0 (Windows NT 10.0; Win64; x64) AppleWebKit/537.36 (KHTML, like Gecko) Chrome/114.0.0.0 Safari/537.36" version="21.6.5" etag="x633lpkKPWNqMQXyrfxU" type="github">
  <diagram name="Page-1" id="BE7LMMyOL1zGE-bUNsX2">
    <mxGraphModel>
      <root>
        <mxCell id="0" />
        <mxCell id="1" parent="0" />
      </root>
    </mxGraphModel>
  </diagram>
</mxfile>
